<?xml version="1.0" encoding="UTF-8" standalone="no"?>
<!DOCTYPE svg PUBLIC "-//W3C//DTD SVG 1.1//EN" "http://www.w3.org/Graphics/SVG/1.1/DTD/svg11.dtd">
<svg width="100%" height="100%" viewBox="0 0 1024 768" version="1.1" xmlns="http://www.w3.org/2000/svg" xmlns:xlink="http://www.w3.org/1999/xlink" xml:space="preserve" xmlns:serif="http://www.serif.com/" style="fill-rule:evenodd;clip-rule:evenodd;stroke-linejoin:round;stroke-miterlimit:2;">
    <g transform="matrix(1.31267,0,0,1.71561,-170.117,-290.631)">
        <g transform="matrix(1,0,0,1,-1.33582e-12,11.0358)">
            <path d="M783.121,455.627L240.879,455.627L240.879,501.256C240.879,552.829 282.687,594.636 334.259,594.636C429.583,594.636 577.314,594.636 677.008,594.636C735.613,594.636 783.121,547.128 783.121,488.523L783.121,455.627ZM742.798,480.564L281.202,480.564L281.202,480.566C281.202,529.793 321.109,569.7 370.336,569.7L653.664,569.7C702.891,569.7 742.798,529.793 742.798,480.566L742.798,480.564Z" style="fill:white;"/>
        </g>
        <g>
            <path d="M783.121,333.284C783.121,335.618 781.909,337.857 779.752,339.507C777.595,341.158 774.67,342.085 771.619,342.085L257.326,342.085C252.964,342.085 248.78,340.759 245.696,338.399C242.612,336.039 240.879,332.838 240.879,329.501C240.879,316.867 240.879,296.168 240.879,274.172C240.879,222.599 282.687,180.792 334.259,180.792L677.008,180.792C735.613,180.792 783.121,228.3 783.121,286.905L783.121,333.284ZM744.964,310.224C745.001,310.624 744.818,311.018 744.459,311.311C744.101,311.603 743.599,311.769 743.075,311.766C712.953,311.635 349.679,310.043 285.54,309.762C280.205,309.739 275.896,306.423 275.896,302.341C275.896,300.762 275.896,298.966 275.896,296.987C275.896,272.221 285.735,248.469 303.247,230.957C320.759,213.444 344.511,217.401 369.277,217.401C447.812,217.401 560.068,219.523 641.991,219.523C670.134,219.523 697.124,214.786 717.024,234.686C736.924,254.586 745.194,269.371 745.194,297.514C745.194,297.514 744.835,306.105 744.964,310.224Z" style="fill:white;"/>
            <g transform="matrix(0.860465,0,0,0.661787,77.9931,68.4947)">
                <ellipse cx="348.887" cy="266.612" rx="22.815" ry="24.937" style="fill:white;"/>
            </g>
            <g transform="matrix(0.860465,0,0,0.661787,28.8785,104.57)">
                <ellipse cx="348.887" cy="266.612" rx="22.815" ry="24.937" style="fill:white;"/>
            </g>
            <g transform="matrix(0.860465,0,0,0.661787,175.691,101.5)">
                <ellipse cx="348.887" cy="266.612" rx="22.815" ry="24.937" style="fill:white;"/>
            </g>
            <g transform="matrix(0.860465,0,0,0.661787,378.955,70.9901)">
                <ellipse cx="348.887" cy="266.612" rx="22.815" ry="24.937" style="fill:white;"/>
            </g>
        </g>
        <g transform="matrix(1,0,0,0.716923,-4.97062,48.4678)">
            <path d="M838.177,445.462C838.177,431.883 827.863,420.874 815.139,420.874L228.02,420.874C223.518,420.874 219.2,422.783 216.016,426.181C212.833,429.578 211.044,434.187 211.044,438.992C211.044,449.381 211.044,462.352 211.044,472.593C211.044,482.123 218.283,489.848 227.212,489.848L813.926,489.848C820.358,489.848 826.526,487.121 831.074,482.267C835.622,477.413 838.177,470.83 838.177,463.966C838.177,457.905 838.177,451.465 838.177,445.462Z" style="fill:white;"/>
        </g>
        <g transform="matrix(1,0,0,0.716923,-4.97062,108.741)">
            <path d="M838.177,445.462C838.177,431.883 827.863,420.874 815.139,420.874L228.02,420.874C223.518,420.874 219.2,422.783 216.016,426.181C212.833,429.578 211.044,434.187 211.044,438.992C211.044,449.381 211.044,462.352 211.044,472.593C211.044,482.123 218.283,489.848 227.212,489.848L813.926,489.848C820.358,489.848 826.526,487.121 831.074,482.267C835.622,477.413 838.177,470.83 838.177,463.966C838.177,457.905 838.177,451.465 838.177,445.462Z" style="fill:white;"/>
        </g>
    </g>
</svg>
