<svg id="Layer_1" data-name="Layer 1" xmlns="http://www.w3.org/2000/svg" viewBox="0 0 204 200"><style>
#Layer_1{
fill: white;}</style><title>Artboard 2</title><path d="M117.55,199.54V129.61h1c7.15,0,14.3,0,21.44,0,.64,0,.88-.14,1-.84,1.2-8.1,2.46-16.2,3.7-24.3.19-1.24.4-2.48.61-3.8H117.51v-.91c0-6.06,0-12.12,0-18.18a15.67,15.67,0,0,1,3.11-10c2.78-3.53,6.63-5,11-5.19,4.58-.19,9.17-.11,13.76-.15h1.09c0-.37,0-.66,0-1,0-7.58,0-15.17,0-22.76,0-.72-.17-1-.93-1.1-8.42-1.22-16.86-2.23-25.38-1.66S103.72,43,97.26,49A32.34,32.34,0,0,0,88.9,61.86a48.69,48.69,0,0,0-2.71,17c0,7,0,13.94,0,20.91v.89H60.81v29H86.12v70C43.43,193.66.78,154.65,1.72,98.67,2.64,43.82,48.18-.59,103.92.53,158.79,1.64,202.79,46.88,202,101.84,201.18,157.59,157.91,194.14,117.55,199.54Z"/></svg>