<?xml version="1.0" encoding="UTF-8" standalone="no"?>
<!DOCTYPE svg PUBLIC "-//W3C//DTD SVG 1.1//EN" "http://www.w3.org/Graphics/SVG/1.1/DTD/svg11.dtd">
<svg width="100%" height="100%" viewBox="0 0 1024 768" version="1.1" xmlns="http://www.w3.org/2000/svg" xmlns:xlink="http://www.w3.org/1999/xlink" xml:space="preserve" xmlns:serif="http://www.serif.com/" style="fill-rule:evenodd;clip-rule:evenodd;stroke-linejoin:round;stroke-miterlimit:2;">
    <g transform="matrix(1.07838,0,0,1.1971,-30.1957,-111.415)">
        <path d="M391.374,120.41L418.679,109.227C421.091,108.239 423.806,108.302 426.17,109.401C428.534,110.499 430.332,112.534 431.133,115.015L489.922,297.235L487.86,174.267C487.772,169.02 491.567,164.513 496.752,163.707C506.731,162.155 522.772,159.661 533.338,158.017C536.012,157.602 538.735,158.363 540.804,160.106C542.874,161.849 544.088,164.403 544.134,167.108L546.37,300.435L580.318,119.21C581.329,113.812 586.326,110.103 591.785,110.698C602.076,111.819 618.277,113.585 628.707,114.721C631.299,115.004 633.655,116.354 635.208,118.447C636.762,120.54 637.372,123.186 636.892,125.748L619.026,221.125L650.239,215.766C652.763,215.332 655.34,215.954 657.38,217.46L658.161,170.896C658.207,168.191 659.421,165.637 661.491,163.894C663.56,162.152 666.283,161.39 668.957,161.806C679.523,163.449 695.564,165.943 705.543,167.495C710.728,168.301 714.523,172.808 714.435,178.055L712.111,316.608L721.709,316.608C724.731,316.608 727.602,317.924 729.574,320.214C731.546,322.504 732.422,325.539 731.974,328.527C724.86,375.957 698.252,553.376 683.828,649.546C678.394,685.78 648.772,712.462 613.982,712.462L419.59,712.462C385.098,712.462 355.509,686.532 349.201,650.777C332.285,554.906 300.752,376.191 292.344,328.539C291.822,325.58 292.635,322.541 294.567,320.239C296.498,317.937 299.349,316.608 302.354,316.608L306.093,316.608L334.721,119.633C335.511,114.198 340.352,110.288 345.831,110.66C356.159,111.36 372.419,112.462 382.887,113.172C385.488,113.348 387.897,114.601 389.535,116.629C390.436,117.745 391.059,119.041 391.374,120.41ZM689.815,371.229C690.484,366.772 689.177,362.245 686.236,358.83C683.295,355.415 679.012,353.451 674.505,353.451L349.384,353.451C344.953,353.451 340.749,355.412 337.901,358.806C335.053,362.201 333.853,366.681 334.623,371.045C342.62,416.368 364.226,538.82 377.479,613.934C383.788,649.689 413.377,675.619 447.868,675.619L583.753,675.619C618.543,675.619 648.165,648.936 653.6,612.703C664.865,537.591 683.033,416.452 689.815,371.229ZM697.718,316.608L669.297,316.608L672.937,183.526C672.999,181.269 674.03,179.148 675.766,177.705C677.503,176.261 679.776,175.635 682.007,175.987C685.684,176.567 689.923,177.235 693.505,177.8C698.067,178.519 701.387,182.513 701.261,187.13L697.718,316.608ZM655.386,316.608L655.717,316.608L655.836,309.517L655.386,316.608ZM642.815,316.608L646.838,233.989C646.954,231.608 645.982,229.304 644.197,227.726C642.412,226.147 640.006,225.465 637.658,225.872C634.487,226.421 631.02,227.022 628.059,227.535C623.819,228.269 620.657,231.846 620.447,236.144L616.529,316.608L642.815,316.608ZM601.14,316.608L603.278,316.608L604.374,299.345L601.14,316.608ZM587.257,316.608L619.209,138.001C619.592,135.856 619.067,133.649 617.759,131.906C616.451,130.164 614.477,129.043 612.31,128.813C608.65,128.425 604.364,127.97 600.689,127.579C595.894,127.07 591.521,130.354 590.671,135.1L558.201,316.608L587.257,316.608ZM533.102,316.608L529.358,179.738C529.296,177.481 528.265,175.36 526.529,173.917C524.792,172.473 522.519,171.847 520.288,172.199C516.611,172.779 512.372,173.447 508.79,174.012C504.228,174.731 500.908,178.725 501.034,183.342L504.68,316.608L533.102,316.608ZM481.926,316.608L421.436,134.219C420.75,132.151 419.235,130.461 417.254,129.553C415.273,128.646 413.004,128.603 410.99,129.434C407.587,130.839 403.603,132.484 400.187,133.894C395.73,135.734 393.453,140.705 394.971,145.282L419.146,218.175C419.509,218.921 419.773,219.714 419.928,220.532L451.792,316.608L481.926,316.608ZM414.123,316.608L436.478,316.608L417.798,258.708L414.123,316.608ZM401.592,316.608L405.747,231.272C405.863,228.892 404.892,226.588 403.106,225.009C401.321,223.431 398.915,222.749 396.567,223.156C393.397,223.705 389.929,224.305 386.968,224.818C382.728,225.553 379.566,229.13 379.357,233.427L375.306,316.608L401.592,316.608ZM349.713,316.608L374.347,136.821C374.643,134.662 374.028,132.477 372.65,130.789C371.271,129.102 369.254,128.063 367.079,127.922C363.406,127.683 359.105,127.403 355.417,127.164C350.605,126.851 346.37,130.31 345.715,135.087L320.843,316.608L349.713,316.608ZM377.769,218.437L403.386,214.039L386.166,160.665L377.769,218.437Z" style="fill:white;"/>
        <g transform="matrix(1.30415,0,0,0.948983,-194.108,20.9424)">
            <ellipse cx="541.539" cy="514.493" rx="73.685" ry="103.998" style="fill:white;"/>
        </g>
    </g>
</svg>
