<svg id="Layer_1" data-name="Layer 1" xmlns="http://www.w3.org/2000/svg" viewBox="0 0 204 200"><style>
#Layer_1{
fill: white;}</style><title>Artboard 2</title><path d="M2,132.94V67.06a13.29,13.29,0,0,0,.32-1.87c.23-7.73.58-15.45,2.47-23,4.28-17,14.15-29.42,30.39-36.45C44,2,53.35.84,62.83.45,64.91.37,67,.15,69.06,0h65.88a13.29,13.29,0,0,0,1.87.32c7.73.23,15.45.58,23,2.47,17,4.28,29.42,14.15,36.45,30.39,3.8,8.81,4.91,18.17,5.3,27.65.08,2.08.3,4.16.45,6.23v65.88a13.29,13.29,0,0,0-.32,1.87c-.23,7.73-.58,15.45-2.47,23-4.27,17-14.15,29.42-30.39,36.45-8.81,3.8-18.17,4.91-27.65,5.3-2.08.08-4.16.3-6.23.45H69.06a13.29,13.29,0,0,0-1.87-.32c-7.73-.23-15.44-.58-23-2.47-17-4.27-29.42-14.15-36.45-30.39C4,158,2.84,148.65,2.45,139.17,2.37,137.09,2.15,135,2,132.94Zm17.88-33h.31c0,8.33-.16,16.66,0,25,.19,7.85.49,15.72,1.28,23.53a35.62,35.62,0,0,0,8.56,20.31c7.05,8,16.3,11.42,26.53,12,11.8.72,23.64.9,35.46,1q17.45.21,34.91-.14c7.85-.16,15.72-.49,23.53-1.28a35.62,35.62,0,0,0,20.31-8.56c8-7,11.42-16.3,12-26.53.72-11.8.9-23.64,1-35.46q.21-17.45-.14-34.91c-.16-7.85-.49-15.72-1.28-23.53a35.62,35.62,0,0,0-8.56-20.31c-7-8-16.3-11.42-26.53-12-11.8-.72-23.64-.9-35.46-1C100.3,18,88.65,18,77,18.25c-8.63.23-17.35.39-25.86,1.72-14.54,2.28-24.39,10.69-28.3,25.12a65.84,65.84,0,0,0-2.12,14.66C20.23,73.15,20.14,86.57,19.88,100Z"/><path d="M102.09,48.61a51.39,51.39,0,1,1-51.48,51.2A51.35,51.35,0,0,1,102.09,48.61Zm0,18.12c-18.21,0-33.3,14.88-33.32,32.87,0,18.55,14.74,33.65,32.92,33.67a33.27,33.27,0,1,0,.4-66.54Z"/><path d="M167.41,46.68a12.06,12.06,0,1,1-12-12.09A12.07,12.07,0,0,1,167.41,46.68Z"/></svg>