<svg id="Layer_1" data-name="Layer 1" xmlns="http://www.w3.org/2000/svg" viewBox="0 0 204 200"><style>
#Layer_1{
fill: white;}</style><title>Artboard 2</title><path d="M174.31,0H30.69A27.69,27.69,0,0,0,3,27.69V171.31A27.69,27.69,0,0,0,30.69,199H174.31A27.69,27.69,0,0,0,202,171.31V27.69A27.69,27.69,0,0,0,174.31,0ZM152.62,74.19c-.41,27-8.76,48.3-27.29,60.54-17.65,14.06-38.94,18.5-64,12.91-8.15-2.43-16-5.59-20.56-9.21a.94.94,0,0,1-.28-.22l.28.22c3.73,1.92,34.07-3.92,37.43-10.64-8.61,1.28-19.21-6.12-23.32-17.37,2.87.81,6.55.76,10.92-.5-14.93-4.7-21.29-14.41-19.85-25.31a20.1,20.1,0,0,0,10.91,3C44.37,76.5,43.16,66.74,49.9,52.85,63.42,69.64,80,79.92,101.51,80.15q-2.39-28.43,25.31-31.27c7.81.51,14.17,2.86,18.36,7.94a40.68,40.68,0,0,0,15.88-5.46,17.2,17.2,0,0,1-9.93,12.91c4.6.41,9.09-1.21,13.4-3A44.68,44.68,0,0,1,152.62,74.19Z"/></svg>