<svg id="Layer_1" data-name="Layer 1" xmlns="http://www.w3.org/2000/svg" viewBox="0 0 204 200"><style>
#Layer_1{
fill: white;}</style><title>Artboard 2</title><path d="M202,100.37c.34,54.23-44.21,99.56-99.59,99.53S2.57,154.39,2.81,99.79C3.05,45.42,47.61.57,102.54.61S202.48,45.83,202,100.37Zm-97.06,46.51c5.74-.13,14-.3,22.26-.52a229.9,229.9,0,0,0,23.45-1.6c8.78-1.14,14.15-6,15.88-14.62s2.07-17.3,2.21-26c.1-5.55-.07-11.12-.31-16.67a110.1,110.1,0,0,0-1.93-17.54C165,62.46,160.62,57.62,153.12,56a68.46,68.46,0,0,0-9.28-1.2c-13.49-1.09-27-1.31-40.55-1.33Q90,53.42,76.66,54c-7.47.3-14.93.88-22.38,1.58-9.58.89-14.64,7.33-16,14.62a158.93,158.93,0,0,0-2.17,26c-.1,5.52.07,11,.31,16.58a107.84,107.84,0,0,0,1.94,17.63c1.54,7.4,5.87,12.23,13.32,13.87a71.84,71.84,0,0,0,9.38,1.22C74.84,146.59,88.63,146.71,104.94,146.88Z"/><path d="M89,80.58l34.43,19.55L89,119.68Z"/></svg>